<?xml version="1.0" encoding="UTF-8"?>
<svg width="70px" height="40px" viewBox="0 0 70 40" version="1.1" xmlns="http://www.w3.org/2000/svg" xmlns:xlink="http://www.w3.org/1999/xlink">
    <!-- Generator: Sketch 43.1 (39012) - http://www.bohemiancoding.com/sketch -->
    <title>chiller-network-logo</title>
    <desc>Created with Sketch.</desc>
    <defs></defs>
    <g id="Page-1" stroke="none" stroke-width="1" fill="none" fill-rule="evenodd">
        <g id="chiller-network-logo" fill-rule="nonzero">
            <g id="Chiller" transform="translate(6.000000, 9.000000)">
                <path d="M4.44268531,16.9457422 C4.03121678,16.8001092 3.70388811,16.5939884 3.45806993,16.3344896 C3.21090909,16.0735237 3.0408951,15.7537629 2.94086713,15.3789313 C2.84218182,15.0013348 2.76788811,14.4435731 2.76788811,13.6451021 C2.76788811,12.8466311 2.8507972,12.0749621 2.94086713,11.7296407 C3.0408951,11.3549219 3.21090909,11.035669 3.45806993,10.7748723 C3.70388811,10.5132294 4.03121678,10.3100427 4.44268531,10.1637326 C4.84430769,10.0188894 5.3514965,9.9483017 5.95888112,9.94395697 L6.31613986,9.94395697 C8.42674126,9.94395697 9.33834965,7.68119936 9.33834965,7.68119936 L5.57303497,7.68119936 C4.53986014,7.68119936 3.67104895,7.82739668 2.96665734,8.12283827 C2.2606993,8.41619214 1.68620979,8.83988789 1.24318881,9.39623895 C0.80027972,9.94971232 0.481622378,10.622694 0.28441958,11.4169331 C0.218685315,11.6807202 0,12.5648444 0,13.4130823 C0,14.2446183 0.112895105,15.1208995 0.284363636,15.8056175 C0.481566434,16.5996309 0.800223776,17.2727254 1.24313287,17.8276094 C1.68615385,18.3825499 2.26064336,18.8077127 2.9666014,19.1002766 C3.61096503,19.3698755 4.39406993,19.5152829 5.31434965,19.53853 L6.60900699,19.53853 L8.93247552,17.1660821 L6.08464336,17.1660821 C5.47725874,17.1632044 4.84430769,17.0897954 4.44268531,16.9457422" id="Shape" fill="#1A1817"></path>
                <path d="M51.605986,7.67617753 C50.8043077,7.67617753 50.2427413,7.81453176 49.8597483,7.95074185 C49.3281678,8.13671884 48.8937063,8.3989825 48.5578741,8.73414733 C48.2206993,9.06773227 47.9777343,9.4763061 47.832,9.95772468 C47.6834126,10.4383533 47.6104615,10.9730371 47.6104615,11.5632997 L47.609007,19.5385864 L50.3641399,19.5385864 L50.3641399,11.5294446 C50.3641399,10.5789081 50.8255664,9.80137085 51.7387413,9.80137085 L53.7235804,9.80137085 L55.9899301,7.67109927 C55.9899301,7.67109927 51.9646434,7.67617753 51.605986,7.67617753" id="Shape" fill="#1A1817"></path>
                <path d="M22.7621259,22.6830984 L22.6320559,22.6240778 L22.5606154,22.5361111 L22.5391329,22.4050921 L22.6677483,22.1918618 C22.7520559,22.141305 22.875021,22.1182271 23.034965,22.1182271 L23.2564476,22.1297379 L23.4707692,22.1643828 L23.6622657,22.2163503 L23.8066573,22.2724932 L23.8066573,21.6713971 C23.7394685,21.6338745 23.6351329,21.6009222 23.4951049,21.570622 C23.3550769,21.5403781 23.1864615,21.5272875 22.9892587,21.5272875 C22.7992168,21.5272875 22.6363077,21.5474313 22.499021,21.5907657 C22.3618462,21.6311661 22.249007,21.6917101 22.1633566,21.7679968 L21.9718601,22.0462288 L21.908979,22.4050921 C21.908979,22.5448006 21.9274965,22.6689357 21.9646434,22.7697108 L22.1432168,23.0233979 L22.4547692,23.1891747 C22.5833846,23.2338069 22.7377343,23.2655742 22.9192168,23.2885957 L23.1034965,23.3274725 L23.2235524,23.3880166 L23.2906853,23.4816822 L23.3092028,23.6215599 L23.2821259,23.7568108 L23.1920559,23.8621564 L23.0190769,23.92981 L22.7475804,23.9571762 L22.4746853,23.9313335 L22.235972,23.8736671 L22.0444755,23.8016123 L21.9088112,23.7324352 L21.9088112,24.3664271 L22.0944895,24.4473406 L22.3217343,24.5048378 L22.5675524,24.5366051 L22.8076084,24.5465923 C22.9763357,24.5465923 23.131972,24.5293262 23.2721119,24.4948505 C23.4106853,24.4587949 23.5306853,24.4011849 23.6292587,24.3233748 L23.858014,24.023532 C23.9123357,23.8966885 23.9408112,23.7440023 23.9408112,23.5637242 C23.9408112,23.4096838 23.9193287,23.2827839 23.8750769,23.1847171 L23.6850909,22.9455877 L23.3748811,22.8072335 C23.2520839,22.7725885 23.1091469,22.7451659 22.9504895,22.7235551 L22.7621259,22.6830984 L22.7621259,22.6830984 Z M24.4868811,23.7354257 C24.536951,23.9255217 24.614042,24.0813113 24.7183776,24.202343 C24.8184056,24.3234312 24.9498741,24.4098744 25.1056224,24.4646631 C25.2614266,24.5194518 25.4457622,24.5466487 25.6571748,24.5466487 L25.8758601,24.5366615 L26.0401678,24.5105931 L26.1644196,24.4745375 L26.2573427,24.4358299 L26.2573427,23.8507021 L26.0087832,23.9342112 L25.7186573,23.9629315 L25.4113566,23.9227004 L25.1999441,23.7784216 L25.0741818,23.4930801 C25.046993,23.3735154 25.0327832,23.2192493 25.0327832,23.0376734 C25.0327832,22.8531071 25.046993,22.7004209 25.0741818,22.5793327 L25.1999441,22.2939912 L25.4113566,22.149938 L25.7186573,22.1094813 L26.0087832,22.138258 L26.2573427,22.2204129 L26.2573427,21.6352851 L26.1644196,21.6008094 L26.0401678,21.5617068 L25.8758601,21.5371619 L25.6571748,21.5271747 C25.4457622,21.5271747 25.2613706,21.5530738 25.1056224,21.6078625 C24.9498182,21.6627077 24.8184056,21.7490944 24.7183776,21.8701826 C24.6140979,21.9912708 24.536951,22.1455369 24.4868811,22.3386798 C24.433958,22.5302993 24.4111888,22.7623192 24.4111888,23.0376734 C24.4111888,23.3102629 24.433958,23.5436369 24.4868811,23.7354257 L24.4868811,23.7354257 Z M27.2991329,24.4905622 L27.4334545,23.8939237 L28.165035,23.8939237 L28.3008671,24.4905622 L28.9538462,24.4905622 L28.1536224,21.5676314 L27.4462657,21.5676314 L26.6446993,24.4905622 L27.2991329,24.4905622 Z M27.7977622,22.2999158 L28.0449231,23.4008815 L27.5534545,23.4008815 L27.7977622,22.2999158 Z M30.0154965,23.4008815 L30.4099021,23.4008815 L30.8001119,24.4905622 L31.5174266,24.4905622 L31.0086713,23.2771414 C31.1615664,23.2006854 31.2659021,23.0983304 31.3230769,22.9629102 C31.3815944,22.8316656 31.4115804,22.6747475 31.4115804,22.4931152 C31.4115804,22.354761 31.3944615,22.2279175 31.3572587,22.1182836 L31.1859021,21.831475 L30.8686434,21.6456109 C30.7385175,21.6022764 30.5770629,21.5821891 30.3798601,21.5821891 L29.3996643,21.5821891 L29.3996643,24.4905622 L30.0155524,24.4905622 L30.0155524,23.4008815 L30.0154965,23.4008815 Z M30.0154965,22.1485838 L30.4357483,22.1485838 L30.5972028,22.1788277 L30.6886154,22.261039 L30.730014,22.3719706 L30.7428811,22.4930588 L30.730014,22.614147 L30.6886154,22.7264328 L30.5972028,22.8086441 L30.4357483,22.838888 L30.0154965,22.838888 L30.0154965,22.1485838 Z M34.0766993,21.5821891 L33.3736503,21.5821891 L32.8506294,22.7956099 L32.3261538,21.5821891 L31.6217063,21.5821891 L32.5377343,23.3635281 L32.5377343,24.4905622 L33.1606713,24.4905622 L33.1606713,23.3635281 L34.0766993,21.5821891 Z M37.1204476,24.4876845 C37.2819021,24.4474535 37.4061538,24.4012978 37.4933706,24.3478068 L37.4933706,22.8086441 L36.473007,22.8086441 L36.473007,23.3635281 L36.8774266,23.3635281 L36.8774266,23.9544678 L36.795972,23.9602231 L36.6989091,23.9631008 C36.5674406,23.9631008 36.453035,23.9515901 36.3615105,23.9213462 L36.1342657,23.7728355 L36.0072168,23.4875504 C35.9828811,23.3679857 35.9701818,23.2165973 35.9701818,23.0378427 C35.9701818,22.866367 35.9829371,22.7207339 36.0059301,22.6054011 L36.1301818,22.3172383 L36.3558601,22.1585146 C36.4458741,22.1240953 36.5631329,22.109707 36.698965,22.109707 L37.0675245,22.1501637 L37.4362517,22.2682049 L37.4362517,21.6628769 C37.3476923,21.6255236 37.2333427,21.5908786 37.0933147,21.5676314 C36.9518322,21.5404346 36.7833287,21.527344 36.5845594,21.527344 C36.145958,21.527344 35.830042,21.6513098 35.6371469,21.9005957 C35.4456503,22.1514051 35.3470769,22.5304122 35.3470769,23.0377863 C35.3470769,23.5436369 35.4443077,23.9228133 35.6356364,24.1705193 C35.8271329,24.4199745 36.1373427,24.5466487 36.5674406,24.5466487 C36.7731469,24.5467051 36.9602797,24.5265614 37.1204476,24.4876845 L37.1204476,24.4876845 Z M39.7168112,24.4344193 C39.8653427,24.360841 39.9841119,24.2600659 40.0713287,24.1259435 C40.156979,23.9918211 40.2183497,23.8305019 40.2540979,23.6488132 C40.2871608,23.461482 40.3042238,23.2583518 40.3042238,23.0378427 C40.3042238,22.8143995 40.2871049,22.6111 40.2540979,22.4238817 C40.2183497,22.2393717 40.157035,22.0807609 40.0713287,21.9481056 C39.9841119,21.8155067 39.8653427,21.7103304 39.7168112,21.6369778 C39.5682797,21.5618197 39.3809231,21.527344 39.1567552,21.527344 C38.9265455,21.527344 38.7380699,21.5618197 38.5908811,21.6369778 C38.4436364,21.7103304 38.3279441,21.8155067 38.2407273,21.9481056 C38.1522238,22.0807609 38.0906294,22.2393717 38.0577343,22.4238817 C38.0235524,22.6111 38.004979,22.8143995 38.004979,23.0378427 C38.004979,23.2583518 38.0235524,23.461482 38.0577343,23.6488132 C38.0906294,23.8305019 38.1521678,23.9918211 38.2407273,24.1259435 C38.3279441,24.2600659 38.4436364,24.360841 38.5908811,24.4344193 C38.7380699,24.510706 38.9265455,24.5467051 39.1567552,24.5467051 C39.3809231,24.5467051 39.5682238,24.5106495 39.7168112,24.4344193 L39.7168112,24.4344193 Z M39.561007,22.3114265 C39.6425175,22.4555361 39.6825734,22.6990667 39.6825734,23.0378427 C39.6825734,23.3750953 39.6425175,23.6185694 39.561007,23.7642025 C39.481007,23.9111333 39.3452308,23.9818339 39.1566993,23.9818339 C38.9636923,23.9818339 38.8293706,23.9111333 38.7494266,23.7642025 C38.6692587,23.6185694 38.6293706,23.3750953 38.6293706,23.0378427 C38.6293706,22.6990667 38.6693147,22.4555361 38.7494266,22.3114265 C38.8294266,22.1644957 38.9636923,22.0895632 39.1566993,22.0895632 C39.3452308,22.0895632 39.4810629,22.1644393 39.561007,22.3114265 L39.561007,22.3114265 Z M42.526042,24.4344193 C42.6719441,24.360841 42.7920559,24.2600659 42.879049,24.1259435 C42.9649231,23.9918211 43.0262937,23.8305019 43.062042,23.6488132 C43.0948811,23.461482 43.1135105,23.2583518 43.1135105,23.0378427 C43.1135105,22.8143995 43.0948811,22.6111 43.062042,22.4238817 C43.0262937,22.2393717 42.964979,22.0807609 42.879049,21.9481056 C42.7920559,21.8155067 42.672,21.7103304 42.526042,21.6369778 C42.3746573,21.5618197 42.1875245,21.527344 41.9631888,21.527344 C41.7344336,21.527344 41.5473007,21.5618197 41.3972587,21.6369778 C41.250014,21.7103304 41.1343217,21.8155067 41.0471049,21.9481056 C40.9598881,22.0807609 40.8998601,22.2393717 40.8657343,22.4238817 C40.8284755,22.6111 40.8129231,22.8143995 40.8129231,23.0378427 C40.8129231,23.2583518 40.8284755,23.461482 40.8657343,23.6488132 C40.8998601,23.8305019 40.9599441,23.9918211 41.0471049,24.1259435 C41.1342657,24.2600659 41.250014,24.360841 41.3972587,24.4344193 C41.5473566,24.510706 41.7344336,24.5467051 41.9631888,24.5467051 C42.1875804,24.5467051 42.3746573,24.5106495 42.526042,24.4344193 L42.526042,24.4344193 Z M42.3676084,22.3114265 C42.4504615,22.4555361 42.489007,22.6990667 42.489007,23.0378427 C42.489007,23.3750953 42.4505175,23.6185694 42.3676084,23.7642025 C42.2874406,23.9111333 42.1531748,23.9818339 41.9631888,23.9818339 C41.7745455,23.9818339 41.6373706,23.9111333 41.5558601,23.7642025 C41.4772587,23.6185694 41.4358042,23.3750953 41.4358042,23.0378427 C41.4358042,22.6990667 41.4772028,22.4555361 41.5558601,22.3114265 C41.6373706,22.1644957 41.7745455,22.0895632 41.9631888,22.0895632 C42.1531748,22.0895632 42.2874965,22.1644393 42.3676084,22.3114265 L42.3676084,22.3114265 Z M44.5724196,24.4905622 C44.8198042,24.4905622 45.0196364,24.4532088 45.1784615,24.381154 C45.3368951,24.3075758 45.4626573,24.2052771 45.5570909,24.0755559 C45.6471049,23.942957 45.7113846,23.7902708 45.7498741,23.6143939 C45.7856224,23.4355829 45.807049,23.24244 45.807049,23.0378427 C45.807049,22.8287879 45.7855664,22.6386919 45.7498741,22.4599373 C45.7113846,22.2811827 45.6471049,22.1297943 45.5570909,22.0001295 C45.4626573,21.8675306 45.3368951,21.765232 45.1784615,21.691823 C45.0196364,21.6195989 44.8198042,21.5822455 44.5724196,21.5822455 L43.637986,21.5822455 L43.637986,24.4906186 L44.5724196,24.4906186 L44.5724196,24.4905622 Z M44.2552168,22.1485838 L44.5867413,22.1485838 L44.8653986,22.2090715 L45.0455385,22.3819014 L45.1412587,22.6601334 C45.1568112,22.7725885 45.1669371,22.8965544 45.1669371,23.0377863 C45.1669371,23.177664 45.1568112,23.3016299 45.1412587,23.4125615 L45.0455385,23.6936147 L44.8653986,23.8650905 L44.5867413,23.9241111 L44.2552168,23.9241111 L44.2552168,22.1485838 Z" id="Shape" fill="#ED174F"></path>
                <path d="M20.0556643,11.2439338 C20.0556643,9.92951215 19.5555245,8.21306194 17.7464056,7.75539831 C15.6730629,7.23301513 13.9667133,8.06534114 13.1422657,8.23534984 L13.1466294,0 L10.3943497,2.72612018 L10.3829371,19.5384736 L13.138014,19.5384736 L13.1422657,10.1492313 C13.4280839,10.0239113 13.7410909,9.88623414 13.8238881,9.86027861 C14.2697622,9.71831317 14.8027972,9.64625837 15.4228811,9.64625837 C16.678993,9.64625837 17.3077483,10.2321762 17.3077483,11.4038425 L17.3077483,20.9421033 C17.3077483,23.4526797 20.0556643,24.6115375 20.0556643,24.6115375 L20.0556643,11.2439338 Z" id="Shape" fill="#1A1817"></path>
                <path d="M24.5669371,19.6507594 C24.5669371,19.6507594 21.8118042,18.5266595 21.8118042,15.9150821 L21.8118042,7.66325619 L24.5682797,7.66325619 L24.5669371,19.6507594 Z" id="Shape" fill="#1A1817"></path>
                <path d="M29.2453706,19.6507594 C29.2453706,19.6507594 26.4888951,18.5266595 26.4888951,15.9150821 L26.4888951,5.23105413 L29.2467133,2.45087875 L29.2453706,19.6507594 Z" id="Shape" fill="#1A1817"></path>
                <path d="M33.8852028,19.6507594 C33.8852028,19.6507594 31.1287832,18.5266595 31.1287832,15.9150821 L31.1287832,5.23105413 L33.8866014,2.45087875 L33.8852028,19.6507594 Z" id="Shape" fill="#1A1817"></path>
                <polygon id="Shape" fill="#ED174F" points="24.5682797 2.45155585 24.5682797 5.23178766 21.8118042 5.23178766"></polygon>
                <path d="M38.3737063,12.7415113 C38.3908252,12.3104803 38.4493427,11.9120629 38.5465734,11.550999 C38.6452028,11.189258 38.7965874,10.8764375 39.0022937,10.6134403 C39.2080559,10.3511766 39.470993,10.1472 39.8011189,10.0008899 C40.1282797,9.85457968 40.5456224,9.77970363 41.0543217,9.77970363 C41.595972,9.77970363 42.0146573,9.86259204 42.3104336,10.0232342 C42.6046993,10.1853434 42.8248392,10.4008871 42.9734266,10.6710502 C43.1206713,10.9414391 43.2120839,11.256968 43.2449231,11.6201761 C43.2778182,11.9833842 43.2935944,12.3565795 43.2935944,12.7415677 L38.3737063,12.7415677 L38.3737063,12.7415113 Z M45.9014825,11.1445129 C45.7856224,10.4361527 45.5485315,9.81496929 45.1868531,9.28384023 C44.8267972,8.75135698 44.3180979,8.32766123 43.6620979,8.00987531 C43.0063217,7.69417712 42.1373986,7.53641266 41.0543776,7.53641266 C40.0555524,7.53641266 39.2080559,7.6783781 38.5093706,7.96445314 C37.8121399,8.25052818 37.2504056,8.65560366 36.8247273,9.17866393 C36.3972587,9.70324768 36.0859301,10.3389324 35.8900699,11.0891599 C35.6928671,11.8356634 35.5957483,12.6721649 35.5957483,13.5977051 C35.5957483,14.6842824 35.7743217,15.5549774 35.8372028,15.8070846 C36.0315524,16.5997438 36.3516084,17.2741925 36.7931189,17.8277223 C37.2376503,18.3839605 37.8121399,18.8078255 38.5165874,19.1003894 C39.1624615,19.3699883 39.9455664,19.5153957 40.8642797,19.5386428 L42.8491189,19.5386428 L45.1713566,17.1648407 L41.635972,17.1648407 C41.0273007,17.161963 40.3943497,17.0899647 39.9927273,16.9443316 C39.5826014,16.7986985 39.2552168,16.5955683 39.0096224,16.3331354 C38.7625175,16.0736365 38.590993,15.7523523 38.4923636,15.3777463 C38.4608671,15.252257 38.427972,15.1023921 38.4038042,14.9322141 L38.3738182,14.5459281 L46.0243357,14.5459281 C46.0401119,14.3614182 46.0516923,14.177134 46.0600839,13.9925676 C46.0688112,13.80518 46.0745175,13.6149147 46.0745175,13.4118409 C46.0743497,12.6117901 46.0172308,11.8564843 45.9014825,11.1445129 L45.9014825,11.1445129 Z" id="Shape" fill="#1A1817"></path>
            </g>
        </g>
    </g>
</svg>